<?xml version="1.0" standalone="no"?>
<!DOCTYPE svg PUBLIC "-//W3C//DTD SVG 20010904//EN"
 "http://www.w3.org/TR/2001/REC-SVG-20010904/DTD/svg10.dtd">
<svg version="1.0" xmlns="http://www.w3.org/2000/svg"
 width="256.000000pt" height="256.000000pt" viewBox="0 0 256.000000 256.000000"
 preserveAspectRatio="xMidYMid meet">

<g transform="translate(0.000000,256.000000) scale(0.100000,-0.100000)"
fill="#000000" stroke="none">
<path d="M1099 2545 c-297 -48 -537 -172 -735 -376 -173 -180 -283 -386 -335
-630 -32 -147 -32 -371 0 -518 174 -810 1053 -1249 1797 -897 367 174 631 514
711 913 26 133 23 367 -6 502 -107 499 -493 887 -987 991 -130 27 -330 34
-445 15z m870 -869 c161 -161 173 -175 160 -193 -35 -49 -843 -1013 -849
-1013 -6 0 -814 964 -849 1013 -13 18 -1 32 160 193 l174 174 515 0 515 0 174
-174z"/>
</g>
</svg>
